<svg width="48" height="48" viewBox="0 0 48 48" fill="none" xmlns="http://www.w3.org/2000/svg">
<ellipse opacity="0.3" cx="24" cy="45" rx="8" ry="3" fill="#232E40"/>
<path d="M36.0208 8.95501C32.8101 5.75969 28.5406 4 23.9995 4C19.4593 4 15.1897 5.75969 11.979 8.95501C8.76829 12.1503 7 16.3992 7 20.9184C7 30.0598 15.6858 37.6634 20.3516 41.7483C20.9999 42.3153 21.5603 42.8059 22.0061 43.2205C22.5649 43.7399 23.2822 44 23.9996 44C24.717 44 25.4343 43.7399 25.9939 43.2205C26.4397 42.8058 27.0001 42.3153 27.6484 41.7483C32.3142 37.6633 41 30.0598 41 20.9184C40.9998 16.3992 39.2316 12.1503 36.0208 8.95501ZM23.9995 27.7347C19.8689 27.7347 16.5083 24.3902 16.5083 20.2787C16.5083 16.168 19.8689 12.8235 23.9995 12.8235C28.1309 12.8235 31.4916 16.168 31.4916 20.2787C31.4916 24.3902 28.1309 27.7347 23.9995 27.7347Z" fill="white"/>
<path d="M23.9995 27.7347C19.8689 27.7347 16.5083 24.3902 16.5083 20.2787C16.5083 16.168 19.8689 12.8235 23.9995 12.8235C28.1309 12.8235 31.4916 16.168 31.4916 20.2787C31.4916 24.3902 28.1309 27.7347 23.9995 27.7347Z" fill="white"/>
<path d="M36.0208 8.95501C32.8101 5.75969 28.5406 4 23.9995 4C19.4593 4 15.1897 5.75969 11.979 8.95501C8.76829 12.1503 7 16.3992 7 20.9184C7 30.0598 15.6858 37.6634 20.3516 41.7483C20.9999 42.3153 21.5603 42.8059 22.0061 43.2205C22.5649 43.7399 23.2822 44 23.9996 44C24.717 44 25.4343 43.7399 25.9939 43.2205C26.4397 42.8058 27.0001 42.3153 27.6484 41.7483C32.3142 37.6633 41 30.0598 41 20.9184C40.9998 16.3992 39.2316 12.1503 36.0208 8.95501ZM23.9995 27.7347C19.8689 27.7347 16.5083 24.3902 16.5083 20.2787C16.5083 16.168 19.8689 12.8235 23.9995 12.8235C28.1309 12.8235 31.4916 16.168 31.4916 20.2787C31.4916 24.3902 28.1309 27.7347 23.9995 27.7347Z" fill="#4DD282"/>
<path opacity="0.4" d="M24 4C28.541 4 32.8106 5.75969 36.0213 8.95501C39.2321 12.1503 41.0003 16.3992 41.0005 20.9184C41.0005 30.059 32.3163 37.662 27.6501 41.7472L27.6488 41.7483C27.0006 42.3153 26.4402 42.8058 25.9944 43.2205C25.4347 43.7399 24.7174 44 24.0001 44L24 27.7347C28.1314 27.7347 31.4921 24.3902 31.4921 20.2787C31.4921 16.168 28.1314 12.8235 24 12.8235V4Z" fill="#232E40"/>
</svg>
