<svg width="48" height="48" viewBox="0 0 48 48" fill="none" xmlns="http://www.w3.org/2000/svg">
<path d="M38.1389 9.86065C40.09 11.8056 41.6156 14.1349 42.6189 16.7007L35.3189 24.0007L16.6989 5.38065C20.3211 3.96125 24.2786 3.62906 28.0867 4.42479C31.8948 5.22051 35.3882 7.10959 38.1389 9.86065ZM5.37891 31.3007C6.33716 33.7554 7.77107 35.9966 9.59823 37.8954C11.4254 39.7942 13.6098 41.3132 16.0259 42.3652C18.442 43.4171 21.0421 43.9812 23.6769 44.025C26.3117 44.0689 28.9292 43.5916 31.3789 42.6207L12.6789 24.0007L5.37891 31.3007Z" fill="#3276FF"/>
<path opacity="0.3" d="M16.6998 5.38078L23.9998 12.6808L5.3798 31.3008C4.40885 28.851 3.93158 26.2336 3.97543 23.5988C4.01927 20.964 4.58337 18.3638 5.63529 15.9477C6.68722 13.5317 8.20624 11.3473 10.1051 9.52011C12.0039 7.69294 14.2451 6.25904 16.6998 5.30078V5.38078ZM23.9998 35.3808L31.2998 42.6808C33.7545 41.7225 35.9957 40.2886 37.8945 38.4615C39.7934 36.6343 41.3124 34.4499 42.3643 32.0338C43.4162 29.6177 43.9803 27.0176 44.0242 24.3828C44.068 21.748 43.5907 19.1305 42.6198 16.6808L23.9998 35.3808Z" fill="#3276FF"/>
</svg>
