<svg xmlns="http://www.w3.org/2000/svg" width="876" height="841" viewBox="0 0 876 841" fill="none">
  <path d="M706.719 414.301C547.42 567.478 636.44 642.895 414.359 706.602C192.279 770.308 122 575.734 122 414.301C122 252.868 252.894 122 414.359 122C575.825 122 866.017 261.124 706.719 414.301Z" fill="white" fill-opacity="0.15"/>
  <path d="M431.179 765.237C490.249 748.292 533.811 729.175 567.168 704.955C601.916 679.727 621.929 651.615 637.464 623.521C643.921 611.845 649.508 600.582 655.064 589.383C674.598 550.003 693.748 511.399 748.999 458.271C799.469 409.74 823.479 352.045 810.623 291.364C798.833 235.715 758.806 192.553 717.129 161.688C633.529 99.776 507.817 61 414.359 61C219.216 61 61 219.167 61 414.301C61 501.165 79.4671 605.445 135.978 681.316C165.123 720.447 204.898 752.532 256.812 768.736C308.424 784.847 366.91 783.673 431.179 765.237Z" stroke="white" stroke-opacity="0.05" strokeWidth="122"/>
</svg>